<?xml version="1.0" encoding="UTF-8" standalone="no"?>
<!-- Created with Inkscape (http://www.inkscape.org/) -->

<svg
   version="1.1"
   id="svg1"
   width="346.07999"
   height="76.333336"
   viewBox="0 0 346.07999 76.333336"
   sodipodi:docname="image1.eps"
   xmlns:inkscape="http://www.inkscape.org/namespaces/inkscape"
   xmlns:sodipodi="http://sodipodi.sourceforge.net/DTD/sodipodi-0.dtd"
   xmlns="http://www.w3.org/2000/svg"
   xmlns:svg="http://www.w3.org/2000/svg">
  <defs
     id="defs1">
    <clipPath
       clipPathUnits="userSpaceOnUse"
       id="clipPath43">
      <path
         d="m 213.066,33.4609 h 2382.55 v 505.602 H 213.066 Z"
         id="path43" />
    </clipPath>
    <clipPath
       clipPathUnits="userSpaceOnUse"
       id="clipPath45">
      <path
         d="m 213.066,33.4609 h 2382.55 v 505.602 H 213.066 Z"
         id="path45" />
    </clipPath>
    <clipPath
       clipPathUnits="userSpaceOnUse"
       id="clipPath47">
      <path
         d="m 213.066,33.4609 h 2382.55 v 505.602 H 213.066 Z"
         id="path47" />
    </clipPath>
  </defs>
  <sodipodi:namedview
     id="namedview1"
     pagecolor="#ffffff"
     bordercolor="#000000"
     borderopacity="0.25"
     inkscape:showpageshadow="2"
     inkscape:pageopacity="0.0"
     inkscape:pagecheckerboard="0"
     inkscape:deskcolor="#d1d1d1">
    <inkscape:page
       x="0"
       y="0"
       inkscape:label="1"
       id="page1"
       width="346.07999"
       height="76.333336"
       margin="0"
       bleed="0" />
  </sodipodi:namedview>
  <g
     id="g1"
     inkscape:groupmode="layer"
     inkscape:label="1">
    <path
       id="path1"
       d="m 751.305,286.25 v 14.891"
       style="fill:none;stroke:#000000;stroke-width:2.5;stroke-linecap:round;stroke-linejoin:round;stroke-miterlimit:10;stroke-dasharray:none;stroke-opacity:1"
       transform="matrix(0.13333333,0,0,-0.13333333,0,76.333333)" />
    <text
       id="text1"
       xml:space="preserve"
       transform="matrix(1.3333333,0,0,1.3333333,96.445867,50.295867)"><tspan
         id="tspan1"
         style="font-variant:normal;font-weight:normal;font-size:10px;font-family:Courier;writing-mode:lr-tb;fill:#000000;fill-opacity:1;fill-rule:nonzero;stroke:none"
         x="0"
         y="0">2</tspan></text>
    <path
       id="path2"
       d="m 1232.82,286.25 v 14.891"
       style="fill:none;stroke:#000000;stroke-width:2.5;stroke-linecap:round;stroke-linejoin:round;stroke-miterlimit:10;stroke-dasharray:none;stroke-opacity:1"
       transform="matrix(0.13333333,0,0,-0.13333333,0,76.333333)" />
    <text
       id="text2"
       xml:space="preserve"
       transform="matrix(1.3333333,0,0,1.3333333,160.508,50.124933)"><tspan
         id="tspan2"
         style="font-variant:normal;font-weight:normal;font-size:10px;font-family:Courier;writing-mode:lr-tb;fill:#000000;fill-opacity:1;fill-rule:nonzero;stroke:none"
         x="0"
         y="0">4</tspan></text>
    <path
       id="path3"
       d="m 1714.33,286.25 v 14.891"
       style="fill:none;stroke:#000000;stroke-width:2.5;stroke-linecap:round;stroke-linejoin:round;stroke-miterlimit:10;stroke-dasharray:none;stroke-opacity:1"
       transform="matrix(0.13333333,0,0,-0.13333333,0,76.333333)" />
    <text
       id="text3"
       xml:space="preserve"
       transform="matrix(1.3333333,0,0,1.3333333,224.292,50.295867)"><tspan
         id="tspan3"
         style="font-variant:normal;font-weight:normal;font-size:10px;font-family:Courier;writing-mode:lr-tb;fill:#000000;fill-opacity:1;fill-rule:nonzero;stroke:none"
         x="0"
         y="0">6</tspan></text>
    <path
       id="path4"
       d="m 2195.87,286.25 v 14.891"
       style="fill:none;stroke:#000000;stroke-width:2.5;stroke-linecap:round;stroke-linejoin:round;stroke-miterlimit:10;stroke-dasharray:none;stroke-opacity:1"
       transform="matrix(0.13333333,0,0,-0.13333333,0,76.333333)" />
    <text
       id="text4"
       xml:space="preserve"
       transform="matrix(1.3333333,0,0,1.3333333,288.80267,50.295867)"><tspan
         id="tspan4"
         style="font-variant:normal;font-weight:normal;font-size:10px;font-family:Courier;writing-mode:lr-tb;fill:#000000;fill-opacity:1;fill-rule:nonzero;stroke:none"
         x="0"
         y="0">8</tspan></text>
    <path
       id="path5"
       d="m 390.16,286.25 v 8.934"
       style="fill:none;stroke:#000000;stroke-width:1.25;stroke-linecap:round;stroke-linejoin:round;stroke-miterlimit:10;stroke-dasharray:none;stroke-opacity:1"
       transform="matrix(0.13333333,0,0,-0.13333333,0,76.333333)" />
    <path
       id="path6"
       d="m 510.551,286.25 v 8.934"
       style="fill:none;stroke:#000000;stroke-width:1.25;stroke-linecap:round;stroke-linejoin:round;stroke-miterlimit:10;stroke-dasharray:none;stroke-opacity:1"
       transform="matrix(0.13333333,0,0,-0.13333333,0,76.333333)" />
    <path
       id="path7"
       d="m 630.941,286.25 v 8.934"
       style="fill:none;stroke:#000000;stroke-width:1.25;stroke-linecap:round;stroke-linejoin:round;stroke-miterlimit:10;stroke-dasharray:none;stroke-opacity:1"
       transform="matrix(0.13333333,0,0,-0.13333333,0,76.333333)" />
    <path
       id="path8"
       d="m 871.695,286.25 v 8.934"
       style="fill:none;stroke:#000000;stroke-width:1.25;stroke-linecap:round;stroke-linejoin:round;stroke-miterlimit:10;stroke-dasharray:none;stroke-opacity:1"
       transform="matrix(0.13333333,0,0,-0.13333333,0,76.333333)" />
    <path
       id="path9"
       d="m 992.063,286.25 v 8.934"
       style="fill:none;stroke:#000000;stroke-width:1.25;stroke-linecap:round;stroke-linejoin:round;stroke-miterlimit:10;stroke-dasharray:none;stroke-opacity:1"
       transform="matrix(0.13333333,0,0,-0.13333333,0,76.333333)" />
    <path
       id="path10"
       d="m 1112.45,286.25 v 8.934"
       style="fill:none;stroke:#000000;stroke-width:1.25;stroke-linecap:round;stroke-linejoin:round;stroke-miterlimit:10;stroke-dasharray:none;stroke-opacity:1"
       transform="matrix(0.13333333,0,0,-0.13333333,0,76.333333)" />
    <path
       id="path11"
       d="m 1353.21,286.25 v 8.934"
       style="fill:none;stroke:#000000;stroke-width:1.25;stroke-linecap:round;stroke-linejoin:round;stroke-miterlimit:10;stroke-dasharray:none;stroke-opacity:1"
       transform="matrix(0.13333333,0,0,-0.13333333,0,76.333333)" />
    <path
       id="path12"
       d="m 1473.57,286.25 v 8.934"
       style="fill:none;stroke:#000000;stroke-width:1.25;stroke-linecap:round;stroke-linejoin:round;stroke-miterlimit:10;stroke-dasharray:none;stroke-opacity:1"
       transform="matrix(0.13333333,0,0,-0.13333333,0,76.333333)" />
    <path
       id="path13"
       d="m 1593.96,286.25 v 8.934"
       style="fill:none;stroke:#000000;stroke-width:1.25;stroke-linecap:round;stroke-linejoin:round;stroke-miterlimit:10;stroke-dasharray:none;stroke-opacity:1"
       transform="matrix(0.13333333,0,0,-0.13333333,0,76.333333)" />
    <path
       id="path14"
       d="m 1834.72,286.25 v 8.934"
       style="fill:none;stroke:#000000;stroke-width:1.25;stroke-linecap:round;stroke-linejoin:round;stroke-miterlimit:10;stroke-dasharray:none;stroke-opacity:1"
       transform="matrix(0.13333333,0,0,-0.13333333,0,76.333333)" />
    <path
       id="path15"
       d="m 1955.09,286.25 v 8.934"
       style="fill:none;stroke:#000000;stroke-width:1.25;stroke-linecap:round;stroke-linejoin:round;stroke-miterlimit:10;stroke-dasharray:none;stroke-opacity:1"
       transform="matrix(0.13333333,0,0,-0.13333333,0,76.333333)" />
    <path
       id="path16"
       d="m 2075.48,286.25 v 8.934"
       style="fill:none;stroke:#000000;stroke-width:1.25;stroke-linecap:round;stroke-linejoin:round;stroke-miterlimit:10;stroke-dasharray:none;stroke-opacity:1"
       transform="matrix(0.13333333,0,0,-0.13333333,0,76.333333)" />
    <path
       id="path17"
       d="m 2316.23,286.25 v 8.934"
       style="fill:none;stroke:#000000;stroke-width:1.25;stroke-linecap:round;stroke-linejoin:round;stroke-miterlimit:10;stroke-dasharray:none;stroke-opacity:1"
       transform="matrix(0.13333333,0,0,-0.13333333,0,76.333333)" />
    <path
       id="path18"
       d="m 2436.63,286.25 v 8.934"
       style="fill:none;stroke:#000000;stroke-width:1.25;stroke-linecap:round;stroke-linejoin:round;stroke-miterlimit:10;stroke-dasharray:none;stroke-opacity:1"
       transform="matrix(0.13333333,0,0,-0.13333333,0,76.333333)" />
    <path
       id="path19"
       d="m 2556.99,286.25 v 8.934"
       style="fill:none;stroke:#000000;stroke-width:1.25;stroke-linecap:round;stroke-linejoin:round;stroke-miterlimit:10;stroke-dasharray:none;stroke-opacity:1"
       transform="matrix(0.13333333,0,0,-0.13333333,0,76.333333)" />
    <path
       id="path20"
       d="M 213.066,286.25 H 2595.61"
       style="fill:none;stroke:#000000;stroke-width:2.5;stroke-linecap:round;stroke-linejoin:round;stroke-miterlimit:10;stroke-dasharray:none;stroke-opacity:1"
       transform="matrix(0.13333333,0,0,-0.13333333,0,76.333333)" />
    <path
       id="path21"
       d="m 269.793,45.4922 h 14.891"
       style="fill:none;stroke:#000000;stroke-width:2.5;stroke-linecap:round;stroke-linejoin:round;stroke-miterlimit:10;stroke-dasharray:none;stroke-opacity:1"
       transform="matrix(0.13333333,0,0,-0.13333333,0,76.333333)" />
    <text
       id="text21"
       xml:space="preserve"
       transform="matrix(1.3333333,0,0,1.3333333,17.4724,74.32708)"><tspan
         id="tspan21"
         style="font-variant:normal;font-weight:normal;font-size:10px;font-family:Courier;writing-mode:lr-tb;fill:#000000;fill-opacity:1;fill-rule:nonzero;stroke:none"
         x="0"
         y="0">-1</tspan></text>
    <path
       id="path22"
       d="m 269.793,165.883 h 14.891"
       style="fill:none;stroke:#000000;stroke-width:2.5;stroke-linecap:round;stroke-linejoin:round;stroke-miterlimit:10;stroke-dasharray:none;stroke-opacity:1"
       transform="matrix(0.13333333,0,0,-0.13333333,0,76.333333)" />
    <text
       id="text22"
       xml:space="preserve"
       transform="matrix(1.3333333,0,0,1.3333333,1.3119787,58.195867)"><tspan
         id="tspan22"
         style="font-variant:normal;font-weight:normal;font-size:10px;font-family:Courier;writing-mode:lr-tb;fill:#000000;fill-opacity:1;fill-rule:nonzero;stroke:none"
         x="0"
         y="0">-0.5</tspan></text>
    <path
       id="path23"
       d="m 269.793,406.641 h 14.891"
       style="fill:none;stroke:#000000;stroke-width:2.5;stroke-linecap:round;stroke-linejoin:round;stroke-miterlimit:10;stroke-dasharray:none;stroke-opacity:1"
       transform="matrix(0.13333333,0,0,-0.13333333,0,76.333333)" />
    <text
       id="text23"
       xml:space="preserve"
       transform="matrix(1.3333333,0,0,1.3333333,9.3119733,26.0948)"><tspan
         id="tspan23"
         style="font-variant:normal;font-weight:normal;font-size:10px;font-family:Courier;writing-mode:lr-tb;fill:#000000;fill-opacity:1;fill-rule:nonzero;stroke:none"
         x="0"
         y="0">0.5</tspan></text>
    <path
       id="path24"
       d="m 269.793,527.008 h 14.891"
       style="fill:none;stroke:#000000;stroke-width:2.5;stroke-linecap:round;stroke-linejoin:round;stroke-miterlimit:10;stroke-dasharray:none;stroke-opacity:1"
       transform="matrix(0.13333333,0,0,-0.13333333,0,76.333333)" />
    <text
       id="text24"
       xml:space="preserve"
       transform="matrix(1.3333333,0,0,1.3333333,25.4724,10.124933)"><tspan
         id="tspan24"
         style="font-variant:normal;font-weight:normal;font-size:10px;font-family:Courier;writing-mode:lr-tb;fill:#000000;fill-opacity:1;fill-rule:nonzero;stroke:none"
         x="0"
         y="0">1</tspan></text>
    <path
       id="path25"
       d="m 269.793,69.582 h 8.934"
       style="fill:none;stroke:#000000;stroke-width:1.25;stroke-linecap:round;stroke-linejoin:round;stroke-miterlimit:10;stroke-dasharray:none;stroke-opacity:1"
       transform="matrix(0.13333333,0,0,-0.13333333,0,76.333333)" />
    <path
       id="path26"
       d="m 269.793,93.6445 h 8.934"
       style="fill:none;stroke:#000000;stroke-width:1.25;stroke-linecap:round;stroke-linejoin:round;stroke-miterlimit:10;stroke-dasharray:none;stroke-opacity:1"
       transform="matrix(0.13333333,0,0,-0.13333333,0,76.333333)" />
    <path
       id="path27"
       d="m 269.793,117.73 h 8.934"
       style="fill:none;stroke:#000000;stroke-width:1.25;stroke-linecap:round;stroke-linejoin:round;stroke-miterlimit:10;stroke-dasharray:none;stroke-opacity:1"
       transform="matrix(0.13333333,0,0,-0.13333333,0,76.333333)" />
    <path
       id="path28"
       d="m 269.793,141.797 h 8.934"
       style="fill:none;stroke:#000000;stroke-width:1.25;stroke-linecap:round;stroke-linejoin:round;stroke-miterlimit:10;stroke-dasharray:none;stroke-opacity:1"
       transform="matrix(0.13333333,0,0,-0.13333333,0,76.333333)" />
    <path
       id="path29"
       d="m 269.793,189.949 h 8.934"
       style="fill:none;stroke:#000000;stroke-width:1.25;stroke-linecap:round;stroke-linejoin:round;stroke-miterlimit:10;stroke-dasharray:none;stroke-opacity:1"
       transform="matrix(0.13333333,0,0,-0.13333333,0,76.333333)" />
    <path
       id="path30"
       d="m 269.793,214.035 h 8.934"
       style="fill:none;stroke:#000000;stroke-width:1.25;stroke-linecap:round;stroke-linejoin:round;stroke-miterlimit:10;stroke-dasharray:none;stroke-opacity:1"
       transform="matrix(0.13333333,0,0,-0.13333333,0,76.333333)" />
    <path
       id="path31"
       d="m 269.793,238.098 h 8.934"
       style="fill:none;stroke:#000000;stroke-width:1.25;stroke-linecap:round;stroke-linejoin:round;stroke-miterlimit:10;stroke-dasharray:none;stroke-opacity:1"
       transform="matrix(0.13333333,0,0,-0.13333333,0,76.333333)" />
    <path
       id="path32"
       d="m 269.793,262.188 h 8.934"
       style="fill:none;stroke:#000000;stroke-width:1.25;stroke-linecap:round;stroke-linejoin:round;stroke-miterlimit:10;stroke-dasharray:none;stroke-opacity:1"
       transform="matrix(0.13333333,0,0,-0.13333333,0,76.333333)" />
    <path
       id="path33"
       d="m 269.793,310.336 h 8.934"
       style="fill:none;stroke:#000000;stroke-width:1.25;stroke-linecap:round;stroke-linejoin:round;stroke-miterlimit:10;stroke-dasharray:none;stroke-opacity:1"
       transform="matrix(0.13333333,0,0,-0.13333333,0,76.333333)" />
    <path
       id="path34"
       d="m 269.793,334.402 h 8.934"
       style="fill:none;stroke:#000000;stroke-width:1.25;stroke-linecap:round;stroke-linejoin:round;stroke-miterlimit:10;stroke-dasharray:none;stroke-opacity:1"
       transform="matrix(0.13333333,0,0,-0.13333333,0,76.333333)" />
    <path
       id="path35"
       d="m 269.793,358.488 h 8.934"
       style="fill:none;stroke:#000000;stroke-width:1.25;stroke-linecap:round;stroke-linejoin:round;stroke-miterlimit:10;stroke-dasharray:none;stroke-opacity:1"
       transform="matrix(0.13333333,0,0,-0.13333333,0,76.333333)" />
    <path
       id="path36"
       d="m 269.793,382.551 h 8.934"
       style="fill:none;stroke:#000000;stroke-width:1.25;stroke-linecap:round;stroke-linejoin:round;stroke-miterlimit:10;stroke-dasharray:none;stroke-opacity:1"
       transform="matrix(0.13333333,0,0,-0.13333333,0,76.333333)" />
    <path
       id="path37"
       d="m 269.793,430.703 h 8.934"
       style="fill:none;stroke:#000000;stroke-width:1.25;stroke-linecap:round;stroke-linejoin:round;stroke-miterlimit:10;stroke-dasharray:none;stroke-opacity:1"
       transform="matrix(0.13333333,0,0,-0.13333333,0,76.333333)" />
    <path
       id="path38"
       d="m 269.793,454.793 h 8.934"
       style="fill:none;stroke:#000000;stroke-width:1.25;stroke-linecap:round;stroke-linejoin:round;stroke-miterlimit:10;stroke-dasharray:none;stroke-opacity:1"
       transform="matrix(0.13333333,0,0,-0.13333333,0,76.333333)" />
    <path
       id="path39"
       d="m 269.793,478.855 h 8.934"
       style="fill:none;stroke:#000000;stroke-width:1.25;stroke-linecap:round;stroke-linejoin:round;stroke-miterlimit:10;stroke-dasharray:none;stroke-opacity:1"
       transform="matrix(0.13333333,0,0,-0.13333333,0,76.333333)" />
    <path
       id="path40"
       d="m 269.793,502.941 h 8.934"
       style="fill:none;stroke:#000000;stroke-width:1.25;stroke-linecap:round;stroke-linejoin:round;stroke-miterlimit:10;stroke-dasharray:none;stroke-opacity:1"
       transform="matrix(0.13333333,0,0,-0.13333333,0,76.333333)" />
    <path
       id="path41"
       d="M 269.793,33.4609 V 539.063"
       style="fill:none;stroke:#000000;stroke-width:2.5;stroke-linecap:round;stroke-linejoin:round;stroke-miterlimit:10;stroke-dasharray:none;stroke-opacity:1"
       transform="matrix(0.13333333,0,0,-0.13333333,0,76.333333)" />
    <path
       id="path42"
       d="m 269.793,286.25 92.039,89.82 47.914,42.387 52.484,40.387 48.821,30.281 45.457,20.727 11.984,4.171 13.035,3.883 11.461,2.86 12.172,2.453 10.961,1.691 6.219,0.738 5.836,0.547 2.742,0.215 2.594,0.168 2.359,0.141 2.527,0.097 2.739,0.094 2.527,0.074 3.024,0.024 h 2.718 l 2.883,-0.024 2.668,-0.074 2.93,-0.094 3.144,-0.144 6.41,-0.453 5.86,-0.524 11.269,-1.453 10.7,-1.859 23.753,-5.789 25.852,-8.813 47.125,-22.566 50.035,-32.281 89.942,-74.883 95.803,-93.399 92.15,-89.82 46.82,-41.312 51.2,-39.411 49.46,-30.7106 44.96,-20.5351 24.04,-7.8399 11.01,-2.8359 11.67,-2.4531 5.94,-1.0235 6.52,-0.9765 6.01,-0.7383 5.48,-0.5508 6.48,-0.5 3.55,-0.1914 1.64,-0.0703"
       style="fill:none;stroke:#000000;stroke-width:5;stroke-linecap:round;stroke-linejoin:round;stroke-miterlimit:10;stroke-dasharray:none;stroke-opacity:1"
       transform="matrix(0.13333333,0,0,-0.13333333,0,76.333333)"
       clip-path="url(#clipPath43)" />
    <path
       id="path44"
       d="m 1394.71,45.6836 1.74,-0.0469 3.12,-0.0937 2.89,-0.0274 1.78,-0.0234 h 1.65 l 3.12,0.0508 2.79,0.0703 2.97,0.1172 2.82,0.1445 2.55,0.1445 6.26,0.5 5.94,0.5938 11.79,1.668 12.82,2.4296 22.89,6.0274 21.14,7.3867 44.55,21.1094 49.13,31.1636 95.92,79.625 92.3,90.082 98.14,95.422 48.98,42.672 45.53,34.547 46.82,29.09 44.12,20.469 23.45,7.886 12.34,3.262 13.03,2.789 11.01,1.809 5.81,0.765 6.27,0.664 5.74,0.454 5.24,0.312 2.5,0.117 2.77,0.071 2.57,0.05 2.41,0.024 h 2.81 l 2.93,-0.024 2.53,-0.074 2.76,-0.094 2.95,-0.144 3.2,-0.192 5.71,-0.449 5.82,-0.597 5.45,-0.692 10.25,-1.621 12.25,-2.476 11.29,-2.86 25.54,-8.265"
       style="fill:none;stroke:#000000;stroke-width:5;stroke-linecap:round;stroke-linejoin:round;stroke-miterlimit:10;stroke-dasharray:none;stroke-opacity:1"
       transform="matrix(0.13333333,0,0,-0.13333333,0,76.333333)"
       clip-path="url(#clipPath45)" />
    <path
       id="path46"
       d="m 2253.1,509.52 44.65,-20.469 49.15,-30.52 96.01,-78.836 92.45,-89.894 3.53,-3.551"
       style="fill:none;stroke:#000000;stroke-width:5;stroke-linecap:round;stroke-linejoin:round;stroke-miterlimit:10;stroke-dasharray:none;stroke-opacity:1"
       transform="matrix(0.13333333,0,0,-0.13333333,0,76.333333)"
       clip-path="url(#clipPath47)" />
  </g>
</svg>
